<svg width="35" height="46" viewBox="0 0 35 46" fill="none" xmlns="http://www.w3.org/2000/svg">
<path fill-rule="evenodd" clip-rule="evenodd" d="M20.2919 1.31951C15.5527 3.72756 4.87011 15.6141 1.38611 22.2747C-0.714563 26.2967 -0.458313 26.5272 6.33031 26.9115L11.1721 27.1933C2.38521 42.5638 3.28181 40.9243 3.20491 41.078C1.28361 44.3827 3.89661 46.5858 6.66331 43.9984C6.68891 43.9728 30.4364 25.5281 34.689 19.4055C35.1757 18.7138 35.0477 17.9197 33.9717 17.1255C32.2041 15.819 29.8217 15.4091 21.1373 14.6919C19.7795 14.5894 19.1648 14.4357 19.2672 14.2308C19.9077 12.6681 22.3669 6.10994 23.5453 3.54823C24.9287 0.550969 24.8006 -0.986081 20.2919 1.31951ZM18.5242 7.05784C18.2937 7.59584 15.4501 14.4101 15.322 14.6919C14.656 16.024 15.0915 16.7157 16.7566 16.895C22.29 17.4842 24.4931 17.6891 26.7219 17.7916C30.4108 17.9709 30.4365 17.8172 26.5426 21.7367C22.3926 25.938 11.7869 35.6727 11.5563 35.4421C11.3514 35.2372 14.7585 28.7303 15.6808 27.5263C17.3459 25.3488 16.8335 25.0414 11.5307 25.0414C9.14821 25.0414 7.66241 24.9901 6.53521 24.9133C5.48491 24.8364 4.84441 23.7093 5.35681 22.7614C7.27811 19.2518 10.7109 14.8712 16.4237 8.59494C19.0367 5.77694 19.0878 5.72574 18.5242 7.05784Z" fill="#000001"/>
</svg>
