<svg width="37" height="35" viewBox="0 0 37 35" fill="none" xmlns="http://www.w3.org/2000/svg">
<path fill-rule="evenodd" clip-rule="evenodd" d="M27.5585 0.918809C25.7552 1.73131 24.7841 3.31661 24.6454 5.65501C24.4671 8.78601 23.7536 9.85611 22.9412 8.23111C19.9885 2.40511 9.8425 0.760309 8.812 5.95221C8.6931 6.50711 8.6733 6.50711 7.3852 6.50711C1.7177 6.46741 -1.55197 17.6241 2.5104 23.1529C2.7878 23.5295 2.3915 24.8572 1.2223 27.4531C0.568402 28.8997 0.647652 29.1375 1.797 29.6528C2.8473 30.1284 3.1842 29.633 5.2847 24.4807C5.6018 23.7078 5.6018 22.8359 5.2847 22.063C4.8091 20.9137 4.2344 19.6454 3.7787 18.7933C2.2726 15.8407 3.2634 11.6792 6.0774 9.18231C8.6535 6.90341 11.2891 8.78601 9.03 11.3027C5.9188 14.7507 8.8715 18.932 13.4491 17.5647C17.5511 16.3559 17.7096 10.6289 13.6671 9.53901C11.5269 8.96431 10.6153 5.95221 12.2402 4.86231C16.2828 2.12761 21.3162 7.73571 20.7812 14.394C20.5038 17.8619 23.9915 16.2766 23.9915 13.8986C23.9915 13.2843 24.15 12.9474 24.7842 12.2142C26.1317 10.6487 26.7658 9.00401 27.0631 6.17021C27.3405 3.55441 30.7489 1.37461 31.7199 3.19771C32.3343 4.34711 31.3632 10.4902 30.2733 12.2539C29.4013 13.6807 26.31 17.1882 25.3191 17.8619C24.0311 18.7339 24.1699 19.4869 25.6957 19.7445C26.4488 19.8634 26.5677 19.8238 27.9746 18.6546C31.4822 15.7416 32.5919 14.3148 33.4242 11.5801C34.0187 9.63811 34.8906 10.074 34.9104 12.0953C34.9302 16.237 30.5904 21.0722 26.4289 22.7764C25.4381 23.1926 25.3786 23.6484 26.2307 24.2825C27.499 25.2139 29.758 24.2429 32.354 21.6469C33.979 20.0219 34.0583 19.9823 33.8799 20.6362C32.9089 24.4014 29.7779 27.5126 25.7948 28.6818C23.1592 29.4546 20.702 30.0095 18.859 30.2473C18.6014 30.3265 17.0359 30.2671 15.728 31.6542C13.8058 33.6953 16.7585 35.3203 17.7691 33.6953C18.5222 32.4667 18.7599 32.3478 20.2264 32.328C21.673 32.328 21.7522 32.3082 25.8542 31.1588C29.3419 30.1878 31.4029 29.1772 32.8891 27.7306C36.0201 24.659 37.328 20.2201 35.7031 18.0799C35.3464 17.6043 35.3463 17.5845 35.921 16.3361C37.0902 13.8392 36.8128 10.5496 35.2671 8.68691C34.7122 8.01311 34.6726 7.83481 34.6132 6.20981C34.5339 2.36541 30.7093 -0.507961 27.5585 0.918809ZM13.35 10.7478C14.9948 11.5801 14.0238 15.8803 12.1016 16.3559C11.4278 16.5342 8.4355 14.9885 10.7738 11.7585C11.8439 10.2722 12.161 10.1335 13.35 10.7478Z" fill="#000001"/>
</svg>
