<svg width="31" height="36" viewBox="0 0 31 36" fill="none" xmlns="http://www.w3.org/2000/svg">
<path fill-rule="evenodd" clip-rule="evenodd" d="M18.5308 5.61652C16.6637 4.83807 14.6437 4.50238 12.6272 4.63543C10.6106 4.76846 8.65148 5.36668 6.90132 6.38377L5.13549 7.40999L3.09649 3.85509L4.86231 2.82887C7.15418 1.49696 9.71969 0.71359 12.3605 0.539368C15.0012 0.365145 17.6464 0.804739 20.0914 1.82414C22.5363 2.84354 24.7155 4.41543 26.4604 6.41821C28.2053 8.42098 29.4691 10.801 30.1541 13.374C30.839 15.9471 30.9267 18.6443 30.4105 21.2569C29.8941 23.8696 28.7877 26.3277 27.1767 28.441C25.5657 30.5543 23.4932 32.2663 21.1197 33.4445C18.7462 34.6227 15.6848 35.2355 13.4888 35.2355C11.2929 35.2355 10.0108 34.904 8.32685 34.2019C6.69032 33.5196 5.20333 32.5195 3.95077 31.2587C2.69822 29.9979 1.70465 28.5011 1.02677 26.8538C0.348897 25.2066 0 23.441 0 21.6579C0 19.8748 0.348898 18.1093 1.02677 16.462C1.70465 14.8147 2.69822 13.3179 3.95077 12.0571C5.20333 10.7963 6.69032 9.79622 8.32686 9.11387C9.9634 8.43155 11.7174 8.08036 13.4888 8.08036C15.2602 8.08036 17.0142 8.43155 18.6507 9.11387C20.2873 9.79622 21.7743 10.7963 23.0268 12.0571C24.2794 13.3179 25.273 14.8147 25.9508 16.462C26.2424 17.1706 26.4731 17.901 26.6414 18.6453C26.7237 17.2324 26.581 15.8112 26.215 14.4365C25.692 12.4716 24.7269 10.6541 23.3945 9.12471C22.0619 7.59532 20.3978 6.39498 18.5308 5.61652ZM5.34449 26.4041C5.57579 21.9912 9.20388 18.4846 13.6456 18.4846C17.9157 18.4846 21.4338 21.7254 21.9049 25.8966C22.0047 25.6957 22.0976 25.4911 22.1832 25.283C22.6561 24.1337 22.8996 22.9019 22.8996 21.6579C22.8996 20.4139 22.6561 19.1822 22.1832 18.0329C21.7103 16.8836 21.0171 15.8394 20.1432 14.9597C19.2693 14.08 18.2319 13.3823 17.0901 12.9063C15.9484 12.4302 14.7246 12.1852 13.4888 12.1852C12.2529 12.1852 11.0292 12.4302 9.88741 12.9063C8.74568 13.3823 7.70823 14.08 6.83436 14.9597C5.96049 15.8394 5.26729 16.8836 4.79435 18.0329C4.32142 19.1822 4.07801 20.4139 4.07801 21.6579C4.07801 22.9019 4.32142 24.1337 4.79435 25.283C4.95335 25.6693 5.13722 26.0438 5.34449 26.4041ZM17.8805 26.8522C17.8805 29.2064 15.9845 31.1149 13.6456 31.1149C11.3068 31.1149 9.41075 29.2064 9.41075 26.8522C9.41075 24.498 11.3068 22.5894 13.6456 22.5894C15.9845 22.5894 17.8805 24.498 17.8805 26.8522Z" fill="#006B99"/>
</svg>
